<svg id="White_version" data-name="White version" xmlns="http://www.w3.org/2000/svg" viewBox="0 0 1247.24 416.92"><defs><style>.cls-1{fill:#fff;}</style></defs><path d="M1247.17,88c0-3.19,0-6.4,0-9.59a143.21,143.21,0,0,0-1.94-20.87,68.72,68.72,0,0,0-6.46-19.83,67.16,67.16,0,0,0-29.17-29.2A70.58,70.58,0,0,0,1189.67,2,138.28,138.28,0,0,0,1168.84.15c-3.19,0-6.44-.11-9.61-.13-3.75,0-7.57,0-11.31,0H99.38C95.56,0,91.78,0,88,0c-3.19,0-6.37.09-9.6.13A140.08,140.08,0,0,0,57.51,2,69.36,69.36,0,0,0,37.7,8.52,67.69,67.69,0,0,0,20.81,20.81,65.31,65.31,0,0,0,8.54,37.72,68.83,68.83,0,0,0,2,57.55,136.49,136.49,0,0,0,.17,78.42C.06,81.61.06,84.82,0,88V328.92c.06,3.25.06,6.38.17,9.63A136.6,136.6,0,0,0,2,359.42a69.09,69.09,0,0,0,6.51,19.84,64.86,64.86,0,0,0,12.27,16.82A65.75,65.75,0,0,0,37.7,408.37a68.78,68.78,0,0,0,19.81,6.55,140.14,140.14,0,0,0,20.87,1.87c3.23.07,6.41.11,9.6.11,3.8,0,7.58,0,11.4,0H1147.92c3.74,0,7.56,0,11.31,0,3.17,0,6.42,0,9.61-.11a138.31,138.31,0,0,0,20.83-1.87,70,70,0,0,0,19.89-6.55,65.65,65.65,0,0,0,16.87-12.29,66.62,66.62,0,0,0,12.3-16.82,69,69,0,0,0,6.46-19.84,143.34,143.34,0,0,0,1.94-20.87c0-3.25,0-6.38,0-9.63.07-3.78.07-7.55.07-11.39V99.4c0-3.82,0-7.6-.07-11.39"/><path class="cls-1" d="M260.54,207.29c-.28-29.8,24.41-44.3,25.54-45-14-20.39-35.65-23.18-43.25-23.4C224.61,137,207,149.82,197.71,149.82c-9.46,0-23.74-10.71-39.12-10.41-19.79.31-38.32,11.77-48.49,29.58-21,36.29-5.31,89.62,14.77,119,10,14.35,21.79,30.42,37.14,29.83,15-.61,20.65-9.57,38.8-9.57,18,0,23.25,9.57,38.94,9.22,16.12-.26,26.27-14.43,36-28.93A118.68,118.68,0,0,0,292.18,255c-.38-.13-31.33-12-31.64-47.7"/><path class="cls-1" d="M230.94,119.61C239,109.5,244.55,95.75,243,81.79c-11.7.53-26.35,8.1-34.76,18-7.48,8.7-14.14,23-12.4,36.42,13.14,1,26.62-6.62,35.08-16.59"/><path class="cls-1" d="M440.91,282.87H391.57l-11.84,35H358.82l46.74-129.42h21.72L474,317.85H452.74Zm-44.23-16.15h39.1L416.52,210H416Z"/><path class="cls-1" d="M574.92,270.68c0,29.32-15.69,48.16-39.38,48.16-13.45,0-24.13-6-29.7-16.51h-.43v46.74H486V223.48h18.74v15.71h.36c5.38-10.13,16.86-16.68,30-16.68,24,0,39.75,18.93,39.75,48.17m-19.91,0c0-19.11-9.87-31.68-25-31.68-14.78,0-24.74,12.85-24.74,31.68,0,19,10,31.74,24.74,31.74,15.08,0,25-12.47,25-31.74"/><path class="cls-1" d="M678.78,270.68c0,29.32-15.68,48.16-39.37,48.16-13.46,0-24.14-6-29.71-16.51h-.43v46.74H589.9V223.48h18.75v15.71H609c5.39-10.13,16.86-16.68,30-16.68,24,0,39.74,18.93,39.74,48.17m-19.91,0c0-19.11-9.87-31.68-24.94-31.68-14.8,0-24.75,12.85-24.75,31.68,0,19,10,31.74,24.75,31.74,15.07,0,24.94-12.47,24.94-31.74"/><path class="cls-1" d="M747.42,281.78c1.44,12.85,13.89,21.26,30.94,21.26,16.33,0,28.08-8.41,28.08-20,0-10-7.1-16.05-23.87-20.17l-16.76-4C742,253.07,731,242,731,223.94c0-22.35,19.46-37.68,47.08-37.68,27.37,0,46.11,15.33,46.74,37.68H805.28c-1.18-12.92-11.84-20.72-27.45-20.72s-26.28,7.89-26.28,19.37c0,9.15,6.81,14.54,23.49,18.67l14.26,3.49c26.56,6.28,37.59,16.94,37.59,35.89,0,24.21-19.28,39.38-50,39.38-28.71,0-48.08-14.8-49.34-38.24Z"/><path class="cls-1" d="M868.71,201.15v22.34h17.95v15.34H868.71v52c0,8.1,3.59,11.87,11.49,11.87,2,0,5.11-.3,6.37-.46v15.26a54.11,54.11,0,0,1-10.76.88c-19.12,0-26.57-7.18-26.57-25.46v-54.1H835.53V223.49h13.71V201.15Z"/><path class="cls-1" d="M897,270.68c0-29.68,17.49-48.36,44.76-48.36s44.76,18.68,44.76,48.36S969.24,319,941.8,319,897,300.45,897,270.68m69.78,0c0-20.37-9.33-32.4-25-32.4s-25,12.11-25,32.4,9.34,32.37,25,32.37,25-11.94,25-32.37"/><path class="cls-1" d="M1002.53,223.49H1021v16.06h.44c3-10.67,11.59-17.05,22.71-17.05a29.62,29.62,0,0,1,6.63.72v18.13a27.24,27.24,0,0,0-8.69-1.18c-12.48,0-20.19,8.43-20.19,21.72v56h-19.37Z"/><path class="cls-1" d="M1140.1,290.14c-2.62,17.12-19.3,28.89-40.63,28.89C1072,319,1055,300.64,1055,271.12s17.12-48.79,43.66-48.79c26.11,0,42.53,17.93,42.53,46.55v6.63h-66.65v1.18c0,16.14,10.13,26.72,25.39,26.72,10.76,0,19.19-5.1,21.79-13.27ZM1074.61,262h47.18c-.44-14.45-9.68-24-23.15-24s-23,9.71-24,24"/><path class="cls-1" d="M394.26,91c18.44,0,29.27,11.35,29.27,30.91,0,19.87-10.74,31.31-29.27,31.31H371.81V91Zm-12.8,53.4h11.71c13,0,20.52-8.08,20.52-22.37,0-14.06-7.64-22.23-20.52-22.23H381.46Z"/><path class="cls-1" d="M434.43,129.7c0-15.13,8.45-24.34,22.14-24.34s22.13,9.21,22.13,24.34-8.4,24.4-22.13,24.4-22.14-9.19-22.14-24.4m34.74,0c0-10.18-4.57-16.12-12.6-16.12S444,119.52,444,129.7s4.52,16.17,12.56,16.17,12.6-6,12.6-16.17"/><polygon class="cls-1" points="537.54 153.2 527.93 153.2 518.24 118.62 517.5 118.62 507.85 153.2 498.33 153.2 485.4 106.26 494.79 106.26 503.2 142.06 503.88 142.06 513.53 106.26 522.43 106.26 532.08 142.06 532.8 142.06 541.17 106.26 550.44 106.26 537.54 153.2"/><path class="cls-1" d="M561.31,106.26h8.91v7.45h.7c2.29-5.22,6.94-8.35,14-8.35,10.48,0,16.23,6.29,16.23,17.43V153.2H591.9V125.12c0-7.53-3.27-11.28-10.13-11.28s-11.2,4.56-11.2,11.9V153.2h-9.26Z"/><rect class="cls-1" x="615.92" y="87.94" width="9.26" height="65.26"/><path class="cls-1" d="M638.07,129.7c0-15.13,8.45-24.34,22.14-24.34s22.14,9.21,22.14,24.34-8.41,24.4-22.14,24.4-22.14-9.19-22.14-24.4m34.74,0c0-10.18-4.58-16.12-12.6-16.12s-12.57,5.94-12.57,16.12,4.52,16.17,12.57,16.17,12.6-6,12.6-16.17"/><path class="cls-1" d="M692.1,139.92c0-8.45,6.29-13.32,17.45-14l12.72-.72v-4.06c0-4.94-3.29-7.77-9.62-7.77-5.16,0-8.76,1.92-9.78,5.24h-9c1-8.06,8.53-13.23,19.18-13.23,11.77,0,18.41,5.85,18.41,15.76v32.07h-8.93v-6.6h-.72c-2.8,4.7-7.93,7.38-14.11,7.38-9.05,0-15.63-5.47-15.63-14.05m30.17-4V132l-11.48.72c-6.46.44-9.37,2.64-9.37,6.77s3.65,6.7,8.69,6.7c7,0,12.16-4.47,12.16-10.28"/><path class="cls-1" d="M743.64,129.7c0-14.83,7.64-24.21,19.51-24.21,6.4,0,11.84,3.05,14.37,8.23h.7V87.93h9.27v65.26h-8.88v-7.42h-.74c-2.78,5.13-8.26,8.18-14.72,8.18-12,0-19.51-9.38-19.51-24.25m9.58,0c0,10,4.69,15.94,12.55,15.94s12.62-6.07,12.62-15.9-4.87-15.94-12.62-15.94-12.55,6-12.55,15.9"/><path class="cls-1" d="M825.8,129.7c0-15.13,8.45-24.34,22.16-24.34s22.12,9.21,22.12,24.34-8.41,24.4-22.12,24.4-22.16-9.19-22.16-24.4m34.74,0c0-10.18-4.57-16.12-12.58-16.12s-12.58,5.94-12.58,16.12,4.52,16.17,12.58,16.17,12.58-6,12.58-16.17"/><path class="cls-1" d="M882.5,106.26h8.91v7.45h.7c2.29-5.22,6.94-8.35,14-8.35,10.48,0,16.23,6.29,16.23,17.43V153.2h-9.26V125.12c0-7.53-3.28-11.28-10.13-11.28s-11.2,4.56-11.2,11.9V153.2H882.5Z"/><path class="cls-1" d="M974.7,94.56v11.92h10.16v7.79H974.7v24.14c0,4.92,2,7.06,6.64,7.06a26.29,26.29,0,0,0,3.52-.22V153a29.64,29.64,0,0,1-5,.46c-10.29,0-14.39-3.61-14.39-12.65V114.27H958v-7.79h7.45V94.56Z"/><path class="cls-1" d="M997.52,87.93h9.18v25.85h.74c2.27-5.25,7.24-8.39,14.3-8.39,10,0,16.17,6.33,16.17,17.51v30.3h-9.27v-28c0-7.51-3.5-11.31-10-11.31-7.61,0-11.83,4.79-11.83,11.9V153.2h-9.26Z"/><path class="cls-1" d="M1091.92,140.51c-2.11,8.41-9.62,13.6-20.34,13.6-13.45,0-21.68-9.23-21.68-24.25s8.4-24.5,21.65-24.5c13,0,20.92,8.91,20.92,23.65v3.23h-33.14v.52c.31,8.25,5.09,13.45,12.51,13.45,5.59,0,9.43-2,11.16-5.7Zm-32.59-15.11H1083c-.22-7.37-4.69-12.16-11.55-12.16s-11.64,4.83-12.16,12.16"/></svg>