<svg id="White_version" data-name="White version" xmlns="http://www.w3.org/2000/svg" viewBox="0 0 1235.61 416.92"><defs><style>.cls-1{fill:#fff;}.cls-2{fill:#fed400;}.cls-3{fill:#f83345;}.cls-4{fill:#00d7fe;}.cls-5{fill:#00ef77;}</style></defs><path d="M1235.54,88c0-3.19,0-6.4,0-9.59a146,146,0,0,0-1.92-20.87,69.53,69.53,0,0,0-6.4-19.83,66.91,66.91,0,0,0-28.9-29.2A69.49,69.49,0,0,0,1178.58,2,135.79,135.79,0,0,0,1157.94.15c-3.16,0-6.38-.11-9.52-.13-3.72,0-7.5,0-11.21,0H98.45c-3.78,0-7.53,0-11.29,0C84,0,80.85.11,77.65.15A137.44,137.44,0,0,0,57,2,68.23,68.23,0,0,0,37.35,8.52,67,67,0,0,0,20.62,20.81,65.14,65.14,0,0,0,8.46,37.72,69.32,69.32,0,0,0,2,57.55,137.74,137.74,0,0,0,.17,78.42C.06,81.61.06,84.82,0,88V328.92c.06,3.25.06,6.38.17,9.63A137.85,137.85,0,0,0,2,359.42a69.58,69.58,0,0,0,6.45,19.84,64.69,64.69,0,0,0,12.16,16.82,65.11,65.11,0,0,0,16.73,12.29A67.67,67.67,0,0,0,57,414.92a137.5,137.5,0,0,0,20.67,1.87c3.2.07,6.35.11,9.51.11,3.76,0,7.51,0,11.29,0H1137.21c3.71,0,7.49,0,11.21,0,3.14,0,6.36,0,9.52-.11a135.82,135.82,0,0,0,20.64-1.87,68.91,68.91,0,0,0,19.7-6.55A65,65,0,0,0,1215,396.08a66.46,66.46,0,0,0,12.19-16.82,69.79,69.79,0,0,0,6.4-19.84,146.15,146.15,0,0,0,1.92-20.87c0-3.25,0-6.38,0-9.63.07-3.78.07-7.55.07-11.39V99.4c0-3.82,0-7.6-.07-11.39"/><path class="cls-1" d="M432.19,125.36q0,11.63-6.89,18.49-7.82,8.22-20.36,8.21a28.53,28.53,0,0,1-28.8-29,28.53,28.53,0,0,1,28.8-28.95,28.62,28.62,0,0,1,11.37,2.32,23.21,23.21,0,0,1,8.68,6.18l-4.87,4.89c-3.68-4.38-8.72-6.57-15.18-6.57a21,21,0,0,0-15.14,6.15c-4.26,4.1-6.38,9.44-6.38,16s2.12,11.89,6.38,16a22.08,22.08,0,0,0,30.61,0c2.69-2.68,4.24-6.44,4.65-11.24H404.94v-6.65H431.8a23.68,23.68,0,0,1,.39,4.19"/><polygon class="cls-1" points="474.77 102.2 449.54 102.2 449.54 119.78 472.29 119.78 472.29 126.44 449.54 126.44 449.54 144.02 474.77 144.02 474.77 150.82 442.41 150.82 442.41 95.39 474.77 95.39 474.77 102.2"/><polygon class="cls-1" points="504.81 150.82 497.68 150.82 497.68 102.19 482.21 102.19 482.21 95.39 520.3 95.39 520.3 102.19 504.81 102.19 504.81 150.82"/><rect class="cls-1" x="547.85" y="95.39" width="7.11" height="55.43"/><polygon class="cls-1" points="586.57 150.82 579.44 150.82 579.44 102.19 563.97 102.19 563.97 95.39 602.04 95.39 602.04 102.19 586.57 102.19 586.57 150.82"/><path class="cls-1" d="M674.17,143.66a28.8,28.8,0,0,1-40.66,0,28.39,28.39,0,0,1-8.16-20.56,28.3,28.3,0,0,1,8.16-20.54,28.68,28.68,0,0,1,40.61,0,29.85,29.85,0,0,1,0,41.07M638.78,139a21.31,21.31,0,0,0,30.11,0q6.15-6.22,6.16-15.91t-6.16-15.9a21.31,21.31,0,0,0-30.11,0q-6.13,6.22-6.15,15.9T638.78,139"/><polygon class="cls-1" points="692.32 150.82 692.32 95.39 700.99 95.39 727.93 138.52 728.24 138.52 727.93 127.84 727.93 95.39 735.06 95.39 735.06 150.82 727.63 150.82 699.44 105.61 699.14 105.61 699.44 116.31 699.44 150.82 692.32 150.82"/><path class="cls-1" d="M623.59,231.68c-21.73,0-39.44,16.52-39.44,39.29,0,22.62,17.71,39.3,39.44,39.3S663,293.59,663,271c0-22.77-17.71-39.29-39.45-39.29m0,63.1c-11.9,0-22.17-9.81-22.17-23.81s10.27-23.82,22.17-23.82,22.18,9.69,22.18,23.82-10.27,23.81-22.18,23.81m-86-63.1c-21.74,0-39.45,16.52-39.45,39.29,0,22.62,17.71,39.3,39.45,39.3S577,293.59,577,271c0-22.77-17.7-39.29-39.43-39.29m0,63.1c-11.91,0-22.18-9.81-22.18-23.81s10.27-23.82,22.18-23.82,22.18,9.69,22.18,23.82-10.27,23.81-22.18,23.81m-102.35-51V260.4h39.89c-1.2,9.37-4.32,16.23-9.08,21-5.81,5.82-14.88,12.2-30.81,12.2-24.57,0-43.77-19.79-43.77-44.36s19.2-44.35,43.77-44.35a42.48,42.48,0,0,1,30.06,11.92L477,205c-10-9.54-23.21-16.81-41.82-16.81-33.65,0-61.93,27.37-61.93,61s28.28,61,61.93,61c18.15,0,31.84-6,42.55-17.12,11-11,14.44-26.48,14.44-39a54.92,54.92,0,0,0-.88-10.42Zm418.58,12.93c-3.27-8.78-13.23-25-33.62-25S783.08,247.61,783.08,271c0,22,16.68,39.3,39,39.3a39.1,39.1,0,0,0,32.74-17.42l-13.4-8.93c-4.46,6.56-10.56,10.86-19.34,10.86s-15-4-19.06-11.9l52.55-21.72Zm-53.58,13.1c-.44-15.17,11.76-22.91,20.54-22.91,6.86,0,12.66,3.44,14.59,8.34Zm-42.7,38.11h17.27V192.38H757.5Zm-28.3-67.43h-.59c-3.87-4.6-11.31-8.77-20.69-8.77-19.64,0-37.66,17.27-37.66,39.44s18,39.15,37.66,39.15c9.38,0,16.82-4.17,20.69-8.93h.59V307c0,15-8,23.06-21,23.06-10.57,0-17.13-7.59-19.79-14l-15,6.26c4.34,10.42,15.78,23.23,34.84,23.23,20.25,0,37.35-11.92,37.35-40.94V234.07H729.2Zm-19.79,54.33c-11.9,0-21.88-10-21.88-23.66,0-13.84,10-24,21.88-24s21,10.13,21,24c0,13.69-9.23,23.66-21,23.66M934.66,192.4h-41.3V307.88h17.23V264.12h24.07c19.1,0,37.9-13.82,37.9-35.87s-18.8-35.85-37.9-35.85m.44,55.65H910.59V208.46H935.1a19.8,19.8,0,1,1,0,39.59m106.56-16.6c-12.5,0-25.42,5.52-30.77,17.68l15.31,6.4c3.26-6.4,9.36-8.47,15.75-8.47,8.92,0,18,5.36,18.13,14.86v1.2a38.25,38.25,0,0,0-18-4.47c-16.48,0-33.26,9.06-33.26,26,0,15.45,13.51,25.41,28.67,25.41,11.59,0,18-5.2,22-11.28h.61v8.9h16.64V263.41c0-20.49-15.3-32-35.06-32m-2.09,63.3c-5.65,0-13.53-2.8-13.53-9.8,0-8.91,9.81-12.33,18.28-12.33,7.58,0,11.14,1.65,15.76,3.86a20.89,20.89,0,0,1-20.51,18.27M1137.34,234l-19.76,50.07h-.6L1096.48,234H1077.9l30.77,70-17.55,38.95h18L1156.51,234ZM982.06,307.88H999.3V192.38H982.06Z"/><path class="cls-2" d="M292.5,227.42,246.13,254.2l-39.25-38.77,38.81-38.88,46.81,27A13.76,13.76,0,0,1,292.5,227.42Z"/><path class="cls-3" d="M246.13,254.2,106.89,334.59a13.73,13.73,0,0,1-16.72-2.28L206.88,215.43Z"/><path class="cls-4" d="M206.88,215.43,90.17,332.31a13.52,13.52,0,0,1-3.94-9.64V108.32a13.57,13.57,0,0,1,3.24-8.88Z"/><path class="cls-5" d="M245.69,176.55l-38.81,38.88L89.47,99.44a13.78,13.78,0,0,1,17.42-3Z"/></svg>